<span>
							<div style="text-align: center"><img class="imagen" border="0" src="http://www5.picturepush.com/photo/a/5552193/1024/Picture-Box/thor-by-almacervecera.jpg" /> <br /> <br />  Thor [TS][Audio Latino]|Peso: 781.47 MB|Estreno!!!   <br /> <br />  Adaptación a la gran pantalla del cómic del mismo nombre. Thor es un  superhéroe de las historietas de Marvel. Fue creado por Jack Kirby y  Stan Lee, inspirándose en el personaje mitológico.   <br />  Sinopsis:   <br />  En el centro de la historia está el mítico Thor (Chris Hemsworth),  un poderoso pero arrogante guerrero cuyas irresponsables acciones  reinician una guerra ancestral. Thor es desterrado a la Tierra por su  padre Odin (Anthony Hopkins) y forzado a vivir entre los humanos. Una  bella y joven científica Jane Foster (Natalie Portman), tiene un  profundo efecto sobre Thor y se convierte en su primer amor. Es en la  Tierra donde Thor descubre lo que hay que tener para ser un héroe cuando  el más peligroso de los villanos de su mundo envía las más oscuras  fuerzas del mal de Asgard hacia la Tierra.   <br /> <br />  Datos de la Pelicula   <br /> <br />  Título: Thor   <br />  Título original: Thor   <br />  País: USA   <br />  Estreno en USA: 06/05/2011   <br />  Estreno en España: 29/04/2011   <br />  Productora: Paramount Pictures / Marvel Studios   <br />  Director: Kenneth Branagh   <br />  Guión: Mark Protosevich, Ashley Miller  y  Zak Stentz   <br />  Reparto: Chris Hemsworth, Tom Hiddleston, Natalie Portman, Anthony  Hopkins, Jaimie Alexander, Colm Feore, Samuel L. Jackson, Stellan  Skarsgard, Stuart Townsend, Ray Stevenson, Tadanobu Asano, Idris Elba,  Kat Dennings, Rene Russo, Adriana Barraza   <br /> <br /> <br />  Info. Codificacion   <br /> <br />  General   <br />  Nombre completo: THHHOR2011.By_Amacervecera.mpg   <br />  Formato: MPEG-PS   <br />  Tamaño del archivo: 781 MiB de   <br />  Duración: 1h 37mn   <br />  Tasa de bits total: 1 118 Kbps   <br />  Escribir la colección: codificada por TMPGEnc XPress Versión 4.0. 4.4.1.237   <br /> <br />  Video   <br />  ID: 224 (0xE0)   <br />  Formato: Video MPEG   <br />  Formato de la versión: Versión 1   <br />  Ajustes del formato, BVOP: Sí   <br />  La configuración del formato, Matrix: Predeterminado   <br />  Duración: 1h 37mn   <br />  Poco el modo de tasa: Constante   <br />  Velocidad de bits: 976 Kbps   <br />  Ancho: 352 píxeles   <br />  Altura: 240 píxeles   <br />  Mostrar la relación de aspecto 16:9   <br />  Velocidad de cuadros: 29.970 fps   <br />  Norma: NTSC   <br />  Espacio de color: YUV   <br />  La profundidad de bits: 8 bits   <br />  Tipo de exploración: Progresivo   <br />  Bits / (Pixel * cuadro): 0.385   <br />  Stream size: 676 MiB (87%)   <br />  La colección de la escritura: TMPGEnc XPress 4.4.1.237   <br /> <br />  Audio   <br />  ID: 192 (0xC0)   <br />  Formato: MPEG Audio   <br />  Formato de la versión: Versión 1   <br />  Formato del perfil: Layer 2   <br />  Duración: 1h 37mn   <br />  Poco el modo de tasa: Constante   <br />  Velocidad de bits: 128 Kbps   <br />  Canal (s): 2 canales   <br />  Frecuencia de muestreo: 44,1 KHz   <br />  Stream size: 89.5 MiB (11%   <br /> <br /> <br />  CAPTURAS   <br /> <br /> <img class="imagen" border="0" src="http://www1.picturepush.com/photo/a/5561419/1024/QW/THHHOR2011.By-Amacervecera-s.jpg" /><br /> <br /> <a href="http://www.uploadstation.com/file/Tqp6dwK" target="_blank" rel="nofollow">http://www.uploadstation.com/file/Tqp6dwK</a><br /> <a href="http://www.uploadstation.com/file/Cf2Qsqv" target="_blank" rel="nofollow">http://www.uploadstation.com/file/Cf2Qsqv</a><br /> 							</div>								</span>

				

<!-- INI TAG -->
<a href="/tags/latino" rel="tag">latino</a>
<a href="/tags/español" rel="tag">español</a>
<a href="/tags/estreno" rel="tag">estreno</a>
<a href="/tags/thor" rel="tag">thor</a>
<a href="/tags/descarga directa" rel="tag">descarga directa</a>
<!-- FIN TAG -->

